<svg width="1394" height="1394" xmlns="http://www.w3.org/2000/svg" xmlns:xlink="http://www.w3.org/1999/xlink" xml:space="preserve" overflow="hidden"><defs><linearGradient x1="1273.25" y1="1099.63" x2="1209.37" y2="734.613" gradientUnits="userSpaceOnUse" spreadMethod="pad" id="fill0"><stop offset="0" stop-color="#63686E" stop-opacity="1"/><stop offset="1" stop-color="#889096" stop-opacity="1"/></linearGradient><linearGradient x1="1273.25" y1="1094.46" x2="1264.89" y2="960.626" gradientUnits="userSpaceOnUse" spreadMethod="pad" id="fill1"><stop offset="0" stop-color="#889096" stop-opacity="1"/><stop offset="1" stop-color="#AAB3BD" stop-opacity="1"/></linearGradient><linearGradient x1="879.7" y1="231.5" x2="923.092" y2="1025.65" gradientUnits="userSpaceOnUse" spreadMethod="pad" id="fill2"><stop offset="0" stop-color="#6CE0FF" stop-opacity="1"/><stop offset="1" stop-color="#4894FE" stop-opacity="1"/></linearGradient><linearGradient x1="314.405" y1="315.739" x2="361.983" y2="448.847" gradientUnits="userSpaceOnUse" spreadMethod="pad" id="fill3"><stop offset="0" stop-color="#9C6CFE" stop-opacity="1"/><stop offset="0.125321" stop-color="#9C6CFE" stop-opacity="1"/><stop offset="1" stop-color="#7A41DC" stop-opacity="1"/></linearGradient><radialGradient cx="0" cy="0" r="1" gradientUnits="userSpaceOnUse" spreadMethod="pad" id="fill4" gradientTransform="matrix(152.777 -19.3229 19.5978 154.95 229.751 364.375)"><stop offset="0" stop-color="#3B148A" stop-opacity="0.5"/><stop offset="0.392122" stop-color="#3B148A" stop-opacity="0.5"/><stop offset="1" stop-color="#3B148A" stop-opacity="0"/></radialGradient><linearGradient x1="101.395" y1="318.675" x2="154.423" y2="475.927" gradientUnits="userSpaceOnUse" spreadMethod="pad" id="fill5"><stop offset="0" stop-color="#BD96FF" stop-opacity="1"/><stop offset="0.125321" stop-color="#BD96FF" stop-opacity="1"/><stop offset="1" stop-color="#9C6CFE" stop-opacity="1"/></linearGradient><linearGradient x1="176.667" y1="279.722" x2="251.181" y2="538.281" gradientUnits="userSpaceOnUse" spreadMethod="pad" id="fill6"><stop offset="0" stop-color="#885EDB" stop-opacity="0"/><stop offset="1" stop-color="#E362F8" stop-opacity="1"/></linearGradient><linearGradient x1="340.675" y1="150.114" x2="408.203" y2="257.939" gradientUnits="userSpaceOnUse" spreadMethod="pad" id="fill7"><stop offset="0" stop-color="#9C6CFE" stop-opacity="1"/><stop offset="0.125321" stop-color="#9C6CFE" stop-opacity="1"/><stop offset="1" stop-color="#7A41DC" stop-opacity="1"/></linearGradient><linearGradient x1="130.346" y1="111.819" x2="220.382" y2="255.586" gradientUnits="userSpaceOnUse" spreadMethod="pad" id="fill8"><stop offset="0" stop-color="#BD96FF" stop-opacity="1"/><stop offset="0.125321" stop-color="#BD96FF" stop-opacity="1"/><stop offset="1" stop-color="#9C6CFE" stop-opacity="1"/></linearGradient><linearGradient x1="228.821" y1="289.198" x2="76.4744" y2="51.8218" gradientUnits="userSpaceOnUse" spreadMethod="pad" id="fill9"><stop offset="0" stop-color="#70777D" stop-opacity="1"/><stop offset="1" stop-color="#B9C0C7" stop-opacity="1"/></linearGradient></defs><g transform="translate(-1145 -398)"><g><g><g><g><path d="M1035.7 926 1027.27 926 708.969 911.531 361.733 926 353.304 926C349.31 926 345.363 926.825 341.706 928.425L148.887 1012.78C128.757 1021.59 115.75 1041.48 115.75 1063.45L1273.25 1063.46C1273.25 1041.48 1260.24 1021.59 1240.11 1012.78L1047.29 928.425C1043.64 926.825 1039.69 926 1035.7 926Z" fill="url(#fill0)" fill-rule="nonzero" transform="matrix(1 0 0 1 1148 403)"/><path d="M151.922 1027.28C131.945 1027.28 115.75 1043.47 115.75 1063.45 115.75 1083.43 131.945 1099.62 151.922 1099.62L1237.08 1099.62C1257.06 1099.62 1273.25 1083.43 1273.25 1063.45 1273.25 1043.47 1257.06 1027.28 1237.08 1027.28L151.922 1027.28Z" fill="url(#fill1)" fill-rule="nonzero" transform="matrix(1 0 0 1 1148 403)"/><path d="M231.5 354.484C231.5 286.562 286.562 231.5 354.484 231.5L1034.52 231.5C1102.44 231.5 1157.5 286.562 1157.5 354.484L1157.5 803.015C1157.5 870.938 1102.44 926 1034.52 926L354.484 926C286.562 926 231.5 870.938 231.5 803.015L231.5 354.484Z" fill="url(#fill2)" fill-rule="nonzero" transform="matrix(1 0 0 1 1148 403)"/></g></g></g><g><g><g><path d="M300.605 298.125C277.737 298.125 259.199 316.663 259.199 339.531L259.199 342.292C259.199 342.292 259.199 430.625 375.136 430.625 375.182 430.625 375.227 430.625 375.273 430.625 375.318 430.625 375.364 430.625 375.409 430.625 491.346 430.625 491.346 342.292 491.346 342.292L491.346 339.531C491.346 316.663 472.809 298.125 449.94 298.125L300.605 298.125Z" fill="url(#fill3)" fill-rule="nonzero" transform="matrix(1.00189 0 0 1 1508 680)"/><path d="M300.605 298.125C277.737 298.125 259.199 316.663 259.199 339.531L259.199 342.292C259.199 342.292 259.199 430.625 375.136 430.625 375.182 430.625 375.227 430.625 375.273 430.625 375.318 430.625 375.364 430.625 375.409 430.625 491.346 430.625 491.346 342.292 491.346 342.292L491.346 339.531C491.346 316.663 472.809 298.125 449.94 298.125L300.605 298.125Z" fill="url(#fill4)" fill-rule="nonzero" transform="matrix(1.00189 -2.00314e-18 -2.74543e-17 1 1508 680)"/><path d="M74.5313 298.125C51.6632 298.125 33.125 316.663 33.125 339.531L33.125 353.333C33.125 353.333 33.125 452.708 176.667 452.708 320.208 452.708 320.208 353.333 320.208 353.333L320.208 339.531C320.208 316.663 301.671 298.125 278.802 298.125L74.5313 298.125Z" fill="url(#fill5)" fill-rule="nonzero" transform="matrix(1.00189 0 0 1 1508 680)"/><path d="M74.5313 298.125C51.6632 298.125 33.125 316.663 33.125 339.531L33.125 353.333C33.125 353.333 33.125 452.708 176.667 452.708 320.208 452.708 320.208 353.333 320.208 353.333L320.208 339.531C320.208 316.663 301.671 298.125 278.802 298.125L74.5313 298.125Z" fill="url(#fill6)" fill-rule="nonzero" transform="matrix(1.00189 0 0 1 1508 680)"/><path d="M375.417 265C412.005 265 441.667 235.339 441.667 198.75 441.667 162.161 412.005 132.5 375.417 132.5 338.828 132.5 309.167 162.161 309.167 198.75 309.167 235.339 338.828 265 375.417 265Z" fill="url(#fill7)" fill-rule="nonzero" transform="matrix(1.00189 0 0 1 1508 680)"/><path d="M176.667 265C225.452 265 265 225.452 265 176.667 265 127.881 225.452 88.3333 176.667 88.3333 127.881 88.3333 88.3333 127.881 88.3333 176.667 88.3333 225.452 127.881 265 176.667 265Z" fill="url(#fill8)" fill-rule="nonzero" transform="matrix(1.00189 0 0 1 1508 680)"/></g></g></g><g><g><g><path d="M132.805 296.126C142.876 298.529 153.195 299.743 163.55 299.743 173.882 299.732 184.178 298.511 194.226 296.105 196.868 295.469 199.249 294.034 201.046 291.996 202.843 289.958 203.968 287.415 204.268 284.715L206.571 263.794C206.96 260.052 208.672 256.572 211.398 253.981 214.124 251.389 217.686 249.857 221.442 249.658 223.94 249.549 226.428 250.015 228.717 251.02L247.841 259.406C249.503 260.154 251.304 260.545 253.127 260.557 254.95 260.569 256.755 260.2 258.427 259.474 260.106 258.757 261.615 257.694 262.855 256.354 276.916 241.199 287.413 223.092 293.58 203.36 294.387 200.742 294.362 197.938 293.508 195.335 292.653 192.732 291.012 190.459 288.811 188.829L271.821 176.294C269.797 174.824 268.149 172.896 267.014 170.668 265.878 168.44 265.286 165.974 265.286 163.473 265.286 160.972 265.878 158.506 267.014 156.277 268.149 154.049 269.797 152.121 271.821 150.652L288.757 138.144C290.965 136.511 292.61 134.232 293.465 131.622 294.319 129.012 294.34 126.201 293.525 123.579 287.357 103.843 276.847 85.7401 262.767 70.5979 260.901 68.6039 258.463 67.2381 255.788 66.689 253.113 66.1399 250.334 66.4346 247.834 67.5322L228.717 75.9525C226.734 76.8463 224.585 77.3103 222.41 77.315 218.484 77.3089 214.699 75.8538 211.781 73.2282 208.863 70.6034 207.018 66.9931 206.598 63.0905L204.282 42.2442C203.985 39.5082 202.841 36.9331 201.008 34.8797 199.176 32.8264 196.748 31.3973 194.063 30.7924 184.067 28.5609 173.866 27.3758 163.625 27.2567 153.311 27.3757 143.037 28.563 132.968 30.7993 130.286 31.4007 127.86 32.8251 126.028 34.8735 124.195 36.922 123.049 39.492 122.75 42.2239L120.427 63.0836C119.991 66.9904 118.131 70.5993 115.201 73.2207 112.209 75.7625 108.437 77.2047 104.513 77.3082 102.348 77.3069 100.206 76.8566 98.2246 75.9866L79.1497 67.5664C76.6406 66.4588 73.8495 66.16 71.164 66.7119 68.4779 67.2637 66.0305 68.6386 64.1619 70.6456 50.099 85.7905 39.5993 103.887 33.4307 123.613 32.6161 126.234 32.6375 129.044 33.4921 131.653 34.3466 134.261 35.9918 136.539 38.1995 138.171L55.1558 150.679C57.1629 152.161 58.795 154.093 59.9212 156.319 61.0475 158.545 61.6366 161.005 61.6413 163.5 61.6436 165.999 61.0577 168.464 59.931 170.695 58.8043 172.926 57.1684 174.86 55.1558 176.342L38.1927 188.87C35.9877 190.5 34.3443 192.776 33.4899 195.382 32.6355 197.988 32.6124 200.795 33.4239 203.414 39.5791 223.158 50.0775 241.273 64.1483 256.429 65.3706 257.752 66.8556 258.805 68.5085 259.522 70.1755 260.255 71.9768 260.633 73.7984 260.633 75.6194 260.633 77.4206 260.255 79.0883 259.522L98.2928 251.095C100.274 250.222 102.416 249.771 104.581 249.773L104.635 249.773C108.544 249.778 112.315 251.221 115.229 253.826 118.144 256.432 119.999 260.018 120.44 263.903L122.743 284.728C123.043 287.432 124.171 289.978 125.972 292.018 127.772 294.057 130.159 295.492 132.805 296.126ZM163.5 206.078C139.985 206.078 120.922 187.015 120.922 163.5 120.922 139.985 139.985 120.922 163.5 120.922 187.015 120.922 206.078 139.985 206.078 163.5 206.078 187.015 187.015 206.078 163.5 206.078Z" fill="url(#fill9)" fill-rule="nonzero" transform="matrix(1.00306 0 0 1 1849 945)"/></g></g></g></g></g></svg>